<?xml version="1.0" encoding="utf-8"?>
<!-- Generator: Adobe Illustrator 16.0.0, SVG Export Plug-In . SVG Version: 6.00 Build 0)  -->
<!DOCTYPE svg PUBLIC "-//W3C//DTD SVG 1.1//EN" "http://www.w3.org/Graphics/SVG/1.1/DTD/svg11.dtd">
<svg version="1.1" id="Capa_1" xmlns="http://www.w3.org/2000/svg" xmlns:xlink="http://www.w3.org/1999/xlink" x="0px" y="0px"
	 width="100px" height="100px" viewBox="0 0 100 100" enable-background="new 0 0 100 100" xml:space="preserve">
<circle fill="#FFFFFF" cx="50" cy="50" r="50"/>
<g>
	<path d="M50,0C22.43,0,0,22.43,0,50c0,27.57,22.43,50,50,50c27.57,0,50-22.43,50-50C100,22.43,77.57,0,50,0z M50,91.43
		C27.157,91.43,8.572,72.844,8.572,50C8.572,27.157,27.157,8.572,50,8.572C72.844,8.572,91.43,27.157,91.43,50
		C91.43,72.844,72.844,91.43,50,91.43z"/>
	<path d="M69.348,30.656c-1.674-1.674-4.389-1.674-6.061,0L50,43.944L36.713,30.656c-1.674-1.674-4.386-1.674-6.06,0
		c-1.674,1.674-1.674,4.386,0,6.06L43.94,50.004L30.653,63.293c-1.674,1.674-1.674,4.385,0,6.06c0.837,0.837,1.934,1.256,3.03,1.256
		s2.195-0.419,3.03-1.256L50,56.064l13.287,13.288c0.837,0.837,1.934,1.256,3.03,1.256s2.192-0.419,3.03-1.256
		c1.674-1.675,1.674-4.386,0-6.06L56.061,50.004l13.287-13.288C71.021,35.042,71.021,32.33,69.348,30.656z"/>
</g>
</svg>
