<?xml version="1.0" encoding="utf-8"?>
<!-- Generator: Adobe Illustrator 16.0.0, SVG Export Plug-In . SVG Version: 6.00 Build 0)  -->
<!DOCTYPE svg PUBLIC "-//W3C//DTD SVG 1.1//EN" "http://www.w3.org/Graphics/SVG/1.1/DTD/svg11.dtd">
<svg version="1.1" id="Capa_1" xmlns="http://www.w3.org/2000/svg" xmlns:xlink="http://www.w3.org/1999/xlink" x="0px" y="0px"
	 width="612.008px" height="612.008px" viewBox="0 0 612.008 612.008" enable-background="new 0 0 612.008 612.008"
	 xml:space="preserve">
<g>
	<g id="Shape_379_1_">
		<g>
			<path fill="#FFFFFF" d="M609.706,298.573L313.806,3.815c-3.987-3.986-10.445-3.986-14.433,0L3.461,298.573
				c-3.988,3.988-3.907,10.354,0,14.395c1.999,2.06,4.608,3.108,7.201,3.131v0.041h71.439v284.865c0,2.813,1.144,5.335,2.988,7.171
				c1.846,1.854,4.396,3.009,7.211,3.009h142.8c5.63,0,10.2-4.569,10.2-10.18V397.556h122.401v203.449
				c0,5.6,4.567,10.18,10.198,10.18h142.8c5.63,0,10.2-4.569,10.2-10.18V316.14H602.8c2.673,0.051,5.189-1,6.905-3.162
				C613.176,308.539,613.697,302.563,609.706,298.573z"/>
		</g>
	</g>
</g>
<rect x="221.004" y="380.504" fill="#FFFFFF" width="171" height="230.681"/>
</svg>
