<?xml version="1.0" encoding="utf-8"?>
<!-- Generator: Adobe Illustrator 16.0.0, SVG Export Plug-In . SVG Version: 6.00 Build 0)  -->
<!DOCTYPE svg PUBLIC "-//W3C//DTD SVG 1.1//EN" "http://www.w3.org/Graphics/SVG/1.1/DTD/svg11.dtd">
<svg version="1.1" id="Capa_1" xmlns="http://www.w3.org/2000/svg" xmlns:xlink="http://www.w3.org/1999/xlink" x="0px" y="0px"
	 width="56.689px" height="54.299px" viewBox="0 0 56.689 54.299" enable-background="new 0 0 56.689 54.299" xml:space="preserve">
<path fill="#FFFFFF" d="M55.694,21.088l-7.094-5.781V6.062c0-1.041-0.848-1.889-1.889-1.889h-4.463
	c-1.041,0-1.889,0.848-1.889,1.889v2.529l-9.477-7.725C30.197,0.308,29.294,0,28.339,0c-0.952,0-1.851,0.306-2.533,0.861
	L0.996,21.088c-1.127,0.919-1.06,1.719-0.919,2.114c0.14,0.394,0.592,1.056,2.04,1.056h3.397v26.599c0,1.897,1.54,3.442,3.433,3.442
	h10.729c1.877,0,3.348-1.513,3.348-3.442V39.948c0-0.935,0.859-1.786,1.802-1.786h7.21c0.898,0,1.63,0.802,1.63,1.786v10.908
	c0,1.865,1.612,3.442,3.519,3.442h10.559c1.893,0,3.433-1.545,3.433-3.442V24.258h3.397c1.447,0,1.899-0.662,2.04-1.056
	C56.754,22.807,56.821,22.007,55.694,21.088z"/>
</svg>
