<?xml version="1.0" encoding="utf-8"?>
<!-- Generator: Adobe Illustrator 16.0.0, SVG Export Plug-In . SVG Version: 6.00 Build 0)  -->
<!DOCTYPE svg PUBLIC "-//W3C//DTD SVG 1.1//EN" "http://www.w3.org/Graphics/SVG/1.1/DTD/svg11.dtd">
<svg version="1.1" id="Layer_1" xmlns="http://www.w3.org/2000/svg" xmlns:xlink="http://www.w3.org/1999/xlink" x="0px" y="0px"
	 width="64px" height="64px" viewBox="0 0 64 64" enable-background="new 0 0 64 64" xml:space="preserve">
<g>
	<g>
		<path fill="#1D1D1B" d="M46.355,18.098c-0.779-0.78-2.043-0.78-2.821,0L31.939,29.689l-11.59-11.591
			c-0.779-0.78-2.044-0.78-2.822,0c-0.778,0.779-0.778,2.043,0,2.823l11.499,11.5L17.534,43.91c-0.778,0.779-0.778,2.043,0,2.822
			c0.392,0.391,0.903,0.586,1.414,0.586c0.511,0,1.02-0.195,1.411-0.586l11.581-11.579l11.584,11.579
			c0.39,0.391,0.898,0.586,1.41,0.586s1.023-0.195,1.412-0.586c0.778-0.779,0.778-2.043,0-2.822l-11.49-11.488l11.5-11.5
			C47.135,20.141,47.135,18.878,46.355,18.098z"/>
		<path fill="#1D1D1B" d="M31.939,0.119C14.33,0.119,0,14.447,0,32.061C0,49.672,14.33,64,31.939,64
			c17.611,0,31.941-14.328,31.941-31.939C63.882,14.447,49.553,0.119,31.939,0.119z M31.939,60.01
			c-15.411,0-27.947-12.539-27.947-27.949c0-15.412,12.537-27.948,27.947-27.948c15.412,0,27.949,12.537,27.949,27.948
			C59.891,47.471,47.354,60.01,31.939,60.01z"/>
	</g>
</g>
</svg>
