<?xml version="1.0" encoding="utf-8"?>
<!-- Generator: Adobe Illustrator 16.0.0, SVG Export Plug-In . SVG Version: 6.00 Build 0)  -->
<!DOCTYPE svg PUBLIC "-//W3C//DTD SVG 1.1//EN" "http://www.w3.org/Graphics/SVG/1.1/DTD/svg11.dtd">
<svg version="1.1" id="Layer_1" xmlns="http://www.w3.org/2000/svg" xmlns:xlink="http://www.w3.org/1999/xlink" x="0px" y="0px"
	 width="64px" height="64px" viewBox="0 0 64 64" enable-background="new 0 0 64 64" xml:space="preserve">
<path fill="#1D1D1B" d="M46.355,18.098c-0.779-0.78-2.043-0.78-2.821,0L31.939,29.689l-11.59-11.591c-0.779-0.78-2.044-0.78-2.822,0
	c-0.778,0.779-0.778,2.043,0,2.823l11.499,11.5L17.534,43.91c-0.778,0.779-0.778,2.043,0,2.822c0.392,0.391,0.903,0.586,1.414,0.586
	c0.511,0,1.02-0.195,1.411-0.586l11.581-11.58l11.583,11.58c0.391,0.391,0.898,0.586,1.41,0.586s1.023-0.195,1.412-0.586
	c0.778-0.779,0.778-2.043,0-2.822l-11.49-11.488l11.5-11.5C47.135,20.141,47.135,18.878,46.355,18.098z"/>
</svg>
