<?xml version="1.0" encoding="utf-8"?>
<!-- Generator: Adobe Illustrator 16.0.0, SVG Export Plug-In . SVG Version: 6.00 Build 0)  -->
<!DOCTYPE svg PUBLIC "-//W3C//DTD SVG 1.1//EN" "http://www.w3.org/Graphics/SVG/1.1/DTD/svg11.dtd">
<svg version="1.1" id="Layer_1" xmlns="http://www.w3.org/2000/svg" xmlns:xlink="http://www.w3.org/1999/xlink" x="0px" y="0px"
	 width="92px" height="56px" viewBox="0 0 92 56" enable-background="new 0 0 92 56" xml:space="preserve">
<g>
	<defs>
		<rect id="SVGID_1_" x="0.875" y="0.799" width="90.25" height="54.402"/>
	</defs>
	<clipPath id="SVGID_2_">
		<use xlink:href="#SVGID_1_"  overflow="visible"/>
	</clipPath>
	<path clip-path="url(#SVGID_2_)" fill="#20386D" d="M48.862,37.223c0.647,0,1.312-0.523,1.485-1.171l0.853-3.179H30.928
		c-4.417-2.629-2.597-8.002,2.308-8.002h18.937c0.646,0,1.31-0.525,1.484-1.172c0.174-0.647-0.21-1.171-0.858-1.171H30.028
		c-1.401,0-2.827,0.572-3.996,1.493c-1.169,0.922-2.083,2.195-2.457,3.596L20.264,39.97c-0.375,1.402-0.144,2.675,0.531,3.597
		c0.675,0.922,1.794,1.493,3.195,1.493h22.772c0.647,0,1.311-0.524,1.486-1.171c0.173-0.646-0.211-1.171-0.858-1.171H24.618
		c-0.754,0-1.358-0.311-1.723-0.808c-0.365-0.498-0.491-1.187-0.289-1.94c0.202-0.755,0.696-1.44,1.327-1.938
		c0.633-0.498,1.402-0.809,2.156-0.809H48.862z"/>
	<path clip-path="url(#SVGID_2_)" fill="#F48220" d="M51.939,25.14c0.735,0,1.492-0.595,1.688-1.329l2.386-8.903
		c0.196-0.735-0.239-1.332-0.975-1.332H37.259c-1.591,0-3.212,0.651-4.539,1.697c-1.329,1.048-2.366,2.494-2.792,4.086l-2.386,8.902
		c-0.427,1.592-0.164,3.038,0.603,4.085c0.767,1.047,2.039,1.697,3.63,1.697h17.78c0.734,0,1.49-0.596,1.688-1.33
		c0.196-0.735-0.24-1.332-0.975-1.332H32.489c-0.857,0-1.542-0.351-1.958-0.918c-0.414-0.565-0.557-1.346-0.327-2.203l0,0
		c0.229-0.856,0.79-1.637,1.507-2.203c0.719-0.566,1.592-0.918,2.449-0.918H51.939z"/>
	<path clip-path="url(#SVGID_2_)" fill="#909395" d="M50.296,29.869c0.192,0,0.392-0.157,0.442-0.349
		c0.052-0.193-0.063-0.349-0.256-0.349H32.877c-0.192,0-0.39,0.155-0.442,0.349c-0.052,0.191,0.063,0.349,0.255,0.349H50.296z"/>
	<path clip-path="url(#SVGID_2_)" fill="#909395" d="M50.912,27.571c0.192,0,0.391-0.156,0.441-0.349
		c0.053-0.192-0.063-0.349-0.254-0.349H33.493c-0.192,0-0.39,0.157-0.441,0.349c-0.052,0.193,0.062,0.349,0.254,0.349H50.912z"/>
	<path clip-path="url(#SVGID_2_)" fill="#909395" d="M47.068,41.271c0.166,0,0.337-0.137,0.383-0.304
		c0.045-0.167-0.056-0.301-0.221-0.301H25.311c-0.167,0-0.339,0.134-0.384,0.301c-0.045,0.167,0.055,0.304,0.222,0.304H47.068z"/>
	<path clip-path="url(#SVGID_2_)" fill="#909395" d="M47.602,39.275c0.166,0,0.338-0.135,0.384-0.303
		c0.045-0.166-0.055-0.303-0.222-0.303H25.845c-0.166,0-0.338,0.137-0.383,0.303c-0.044,0.168,0.054,0.303,0.222,0.303H47.602z"/>
	<path clip-path="url(#SVGID_2_)" fill="#20386D" d="M16.749,30.98c-0.544-0.963-0.475-2.716,0.207-5.261h5.388l3.395-12.668H20.35
		l3.283-12.252H11.637L8.358,13.037H4.28L0.875,25.743h4.079l-0.355,1.324c-1.22,4.554-1.28,8.21-0.181,10.97
		c0.875,2.16,2.347,3.87,4.414,5.131c2.067,1.262,4.459,1.892,7.174,1.892c0.299,0,0.762-0.011,1.388-0.032l3.377-12.604
		C18.633,32.423,17.292,31.942,16.749,30.98"/>
	<path clip-path="url(#SVGID_2_)" fill="#20386D" d="M70.251,13.051h-0.006l3.282-12.252H61.531l-7.038,26.268
		c-1.22,4.554-1.279,8.21-0.181,10.97c0.876,2.16,2.348,3.87,4.414,5.131c2.067,1.262,4.46,1.892,7.175,1.892
		c0.3,0,0.762-0.011,1.389-0.032l3.377-12.604c-2.139,0-3.479-0.48-4.023-1.442c-0.517-0.913-0.474-2.549,0.115-4.887h-0.003
		l0.027-0.098c0.023-0.094,0.041-0.181,0.066-0.276h0.006L70.251,13.051z"/>
	<path clip-path="url(#SVGID_2_)" fill="#20386D" d="M87.848,13.051h-0.004l3.281-12.252H79.129l-7.037,26.268
		c-1.22,4.554-1.282,8.21-0.182,10.97c0.875,2.16,2.346,3.87,4.415,5.131c2.067,1.262,4.458,1.892,7.175,1.892
		c0.298,0,0.762-0.011,1.387-0.032l3.378-12.604c-2.139,0-3.479-0.48-4.023-1.442c-0.517-0.913-0.474-2.549,0.114-4.887h-0.002
		l0.026-0.098c0.022-0.094,0.043-0.181,0.068-0.276h0.005L87.848,13.051z"/>
	<path clip-path="url(#SVGID_2_)" fill="#595A5C" d="M76.836,49.917c-1.158,0-1.888,0.822-2.188,1.947
		c-0.29,1.082-0.026,1.863,1.064,1.863c0.278,0,0.724-0.07,1.042-0.168l-0.012,0.042c-0.213,0.796-0.751,1.005-1.589,1.138
		c-0.058,0.008-0.078,0.034-0.09,0.077l-0.044,0.321c-0.002,0.055,0.021,0.069,0.089,0.062c1.142-0.153,1.881-0.564,2.215-1.808
		l0.839-3.133c0.016-0.056,0.003-0.09-0.046-0.118C77.737,49.967,77.255,49.917,76.836,49.917 M76.879,53.119
		c-0.396,0.127-0.806,0.168-0.994,0.168c-0.684,0-0.963-0.496-0.707-1.451c0.281-1.046,0.879-1.479,1.55-1.486
		c0.238,0,0.585,0.034,0.857,0.139L76.879,53.119z M73.426,53.56l0.507-1.89c0.338-1.265-0.011-1.761-1.203-1.761
		c-0.231,0-0.7,0.029-0.934,0.069c-0.27,0.043-0.427,0.19-0.501,0.463l-0.836,3.118c-0.021,0.077,0.011,0.092,0.074,0.092h0.314
		c0.068,0,0.101-0.015,0.12-0.092l0.839-3.125c0.343-0.063,0.653-0.071,0.766-0.071c0.955,0,1.075,0.44,0.836,1.332l-0.499,1.864
		c-0.021,0.077,0.009,0.092,0.073,0.092h0.321C73.374,53.651,73.405,53.637,73.426,53.56 M69.398,53.56l0.933-3.482
		c0.021-0.077-0.003-0.092-0.072-0.092h-0.316c-0.062,0-0.1,0.015-0.12,0.092L68.89,53.56c-0.021,0.077,0.011,0.092,0.073,0.092
		h0.314C69.346,53.651,69.379,53.637,69.398,53.56 M70.724,48.981c0.052-0.195-0.06-0.356-0.255-0.356
		c-0.188,0-0.391,0.161-0.442,0.356c-0.054,0.196,0.068,0.343,0.256,0.343C70.478,49.324,70.67,49.178,70.724,48.981 M67.835,53.56
		l0.507-1.89c0.34-1.265-0.011-1.761-1.203-1.761c-0.23,0-0.697,0.029-0.934,0.069c-0.268,0.043-0.428,0.19-0.5,0.463L64.87,53.56
		c-0.021,0.077,0.01,0.092,0.073,0.092h0.313c0.07,0,0.101-0.015,0.122-0.092l0.837-3.125c0.346-0.063,0.655-0.071,0.766-0.071
		c0.957,0,1.077,0.44,0.837,1.332l-0.499,1.864c-0.021,0.077,0.01,0.092,0.072,0.092h0.321
		C67.783,53.651,67.815,53.637,67.835,53.56 M65.231,50.488c0.029-0.027,0.045-0.062,0.021-0.097
		c-0.29-0.328-0.695-0.482-1.24-0.482c-0.188,0-0.373,0.015-0.59,0.043c-0.305,0.048-0.417,0.174-0.493,0.46l-0.844,3.147
		c-0.021,0.077,0.005,0.092,0.066,0.092h0.313c0.07,0,0.102-0.015,0.123-0.092l0.841-3.14c0.2-0.042,0.37-0.049,0.495-0.049
		c0.419,0,0.718,0.16,0.911,0.404c0.025,0.028,0.051,0.041,0.106-0.007L65.231,50.488z M60.7,53.155
		c-0.346,0.119-0.806,0.146-0.974,0.146c-0.503,0-0.93-0.152-0.778-0.718c0.193-0.719,0.881-0.788,1.216-0.788h0.901L60.7,53.155z
		 M61.177,53.328l0.601-2.239c0.206-0.769-0.109-1.18-1.01-1.18c-0.377,0-0.882,0.063-1.247,0.202
		c-0.069,0.022-0.086,0.058-0.085,0.105l0.003,0.251c0.004,0.063,0.04,0.063,0.106,0.043c0.281-0.084,0.712-0.154,1.02-0.154
		c0.746,0,0.805,0.328,0.679,0.804l-0.052,0.187h-0.928c-1.02,0-1.637,0.539-1.824,1.236c-0.156,0.586-0.008,1.145,1.18,1.145
		c0.433,0,0.957-0.057,1.415-0.23C61.104,53.469,61.152,53.42,61.177,53.328 M57.631,51.536h-2.086
		c0.212-0.663,0.717-1.194,1.373-1.194C57.728,50.342,57.802,50.901,57.631,51.536 M57.033,49.909c-0.92,0-1.773,0.684-2.106,1.927
		c-0.353,1.319,0.115,1.892,1.141,1.892c0.356,0,0.762-0.057,1.134-0.252c0.056-0.02,0.078-0.056,0.067-0.117l-0.061-0.244
		c-0.014-0.058-0.047-0.058-0.109-0.029c-0.233,0.111-0.57,0.196-0.877,0.196c-0.648,0-1.063-0.357-0.812-1.326h2.129
		c0.26,0,0.494-0.091,0.598-0.481C58.375,50.56,58.095,49.909,57.033,49.909 M54.086,53.544l0.078-0.292
		c0.017-0.063,0.013-0.097-0.065-0.097h-1.939c-0.44,0-0.579-0.209-0.467-0.629l0.985-3.677c0.021-0.077-0.001-0.099-0.071-0.099
		h-0.344c-0.062,0-0.102,0.021-0.122,0.099l-0.978,3.643c-0.169,0.634-0.036,1.159,0.815,1.159h1.988
		C54.043,53.651,54.066,53.616,54.086,53.544 M48.746,51.961h1.604c0.069,0,0.089-0.021,0.108-0.09l0.107-0.404
		c0.017-0.063,0.01-0.091-0.06-0.091h-1.604c-0.078,0-0.1,0.028-0.117,0.091l-0.107,0.404C48.66,51.94,48.669,51.961,48.746,51.961
		 M47.639,51.536h-2.087c0.212-0.663,0.718-1.194,1.374-1.194C47.735,50.342,47.809,50.901,47.639,51.536 M47.041,49.909
		c-0.921,0-1.774,0.684-2.107,1.927c-0.354,1.319,0.114,1.892,1.14,1.892c0.356,0,0.761-0.057,1.135-0.252
		c0.055-0.02,0.078-0.056,0.066-0.117l-0.06-0.244c-0.013-0.058-0.048-0.058-0.111-0.029c-0.233,0.111-0.568,0.196-0.875,0.196
		c-0.65,0-1.063-0.357-0.811-1.326h2.129c0.258,0,0.492-0.091,0.597-0.481C48.382,50.56,48.102,49.909,47.041,49.909 M42.414,51.529
		c0.268-0.998,0.036-1.62-1.019-1.62c-0.264,0-0.687,0.043-1.057,0.175l0.386-1.444c0.021-0.076-0.004-0.091-0.073-0.091h-0.314
		c-0.063,0-0.102,0.015-0.122,0.091l-1.319,4.92c-0.021,0.077,0.011,0.092,0.074,0.092h0.314c0.069,0,0.102-0.015,0.121-0.092
		l0.814-3.036c0.29-0.118,0.708-0.167,0.973-0.167c0.69,0,0.911,0.377,0.701,1.158l-0.547,2.045
		c-0.021,0.077,0.003,0.092,0.073,0.092h0.328c0.064,0,0.095-0.015,0.115-0.092L42.414,51.529z M37.574,53.155
		c-0.345,0.119-0.806,0.146-0.975,0.146c-0.501,0-0.929-0.152-0.776-0.718c0.192-0.719,0.881-0.788,1.216-0.788h0.9L37.574,53.155z
		 M38.05,53.328l0.601-2.239c0.206-0.769-0.11-1.18-1.011-1.18c-0.376,0-0.882,0.063-1.247,0.202
		c-0.068,0.022-0.085,0.058-0.084,0.105l0.002,0.251c0.004,0.063,0.039,0.063,0.108,0.043c0.279-0.084,0.709-0.154,1.017-0.154
		c0.747,0,0.805,0.328,0.679,0.804l-0.051,0.187h-0.929c-1.018,0-1.637,0.539-1.823,1.236c-0.158,0.586-0.007,1.145,1.179,1.145
		c0.434,0,0.957-0.057,1.417-0.23C37.979,53.469,38.026,53.42,38.05,53.328 M33.856,49.917c-1.158,0-1.888,0.822-2.189,1.947
		c-0.29,1.082-0.024,1.863,1.064,1.863c0.28,0,0.723-0.07,1.042-0.168l-0.011,0.042c-0.213,0.796-0.751,1.005-1.588,1.138
		c-0.058,0.008-0.079,0.034-0.091,0.077l-0.043,0.321c-0.001,0.055,0.022,0.069,0.088,0.062c1.143-0.153,1.881-0.564,2.214-1.808
		l0.84-3.133c0.015-0.056,0.003-0.09-0.045-0.118C34.758,49.967,34.275,49.917,33.856,49.917 M33.899,53.119
		c-0.397,0.127-0.807,0.168-0.995,0.168c-0.684,0-0.963-0.496-0.707-1.451c0.281-1.046,0.878-1.479,1.551-1.486
		c0.237,0,0.583,0.034,0.855,0.139L33.899,53.119z M30.659,51.536h-2.086c0.212-0.663,0.717-1.194,1.374-1.194
		C30.756,50.342,30.83,50.901,30.659,51.536 M30.063,49.909c-0.921,0-1.774,0.684-2.108,1.927c-0.353,1.319,0.115,1.892,1.141,1.892
		c0.355,0,0.762-0.057,1.134-0.252c0.055-0.02,0.079-0.056,0.068-0.117l-0.061-0.244c-0.013-0.058-0.048-0.058-0.111-0.029
		c-0.233,0.111-0.57,0.196-0.877,0.196c-0.649,0-1.063-0.357-0.81-1.326h2.129c0.257,0,0.492-0.091,0.596-0.481
		C31.404,50.56,31.123,49.909,30.063,49.909 M26.203,49.909c-0.502,0-1.027,0.161-1.438,0.399h-0.008
		c-0.211-0.279-0.536-0.399-1.101-0.399c-0.209,0-0.586,0.029-0.822,0.069c-0.269,0.043-0.427,0.19-0.5,0.463L21.5,53.56
		c-0.021,0.077,0.01,0.092,0.073,0.092h0.313c0.07,0,0.101-0.015,0.123-0.092l0.837-3.125c0.345-0.063,0.599-0.071,0.71-0.071
		c0.887,0,1,0.46,0.777,1.292l-0.512,1.911c-0.02,0.07,0.004,0.085,0.068,0.085h0.313c0.069,0,0.102-0.015,0.12-0.085l0.509-1.896
		c0.12-0.448,0.165-0.769,0.108-1.026c0.322-0.161,0.801-0.28,1.079-0.28c0.789,0,0.94,0.427,0.693,1.347l-0.497,1.856
		c-0.019,0.07,0.006,0.085,0.076,0.085h0.313c0.07,0,0.095-0.015,0.113-0.085l0.526-1.961
		C27.516,50.587,27.333,49.909,26.203,49.909 M20.424,53.56l0.933-3.482c0.021-0.077-0.003-0.092-0.073-0.092h-0.315
		c-0.062,0-0.1,0.015-0.121,0.092l-0.933,3.482c-0.021,0.077,0.011,0.092,0.073,0.092h0.315
		C20.372,53.651,20.404,53.637,20.424,53.56 M21.749,48.981c0.052-0.195-0.058-0.356-0.253-0.356c-0.188,0-0.392,0.161-0.445,0.356
		c-0.052,0.196,0.07,0.343,0.258,0.343C21.504,49.324,21.696,49.178,21.749,48.981 M20.13,50.488
		c0.028-0.027,0.045-0.062,0.019-0.097c-0.289-0.328-0.694-0.482-1.238-0.482c-0.188,0-0.375,0.015-0.59,0.043
		c-0.306,0.048-0.417,0.174-0.494,0.46l-0.843,3.147c-0.021,0.077,0.003,0.092,0.065,0.092h0.315c0.07,0,0.102-0.015,0.121-0.092
		l0.841-3.14c0.2-0.042,0.37-0.049,0.496-0.049c0.418,0,0.718,0.16,0.91,0.404c0.027,0.028,0.051,0.041,0.107-0.007L20.13,50.488z
		 M15.05,53.56l1.158-4.32h1.445c0.076,0,0.096-0.02,0.115-0.091l0.076-0.284c0.019-0.07,0.012-0.099-0.064-0.099h-3.392
		c-0.069,0-0.091,0.028-0.109,0.099l-0.078,0.284c-0.018,0.071-0.009,0.091,0.06,0.091h1.396L14.5,53.56
		c-0.021,0.077,0.003,0.092,0.073,0.092h0.369C15.006,53.651,15.031,53.637,15.05,53.56"/>
</g>
</svg>
