<?xml version="1.0" encoding="utf-8"?>
<!-- Generator: Adobe Illustrator 16.0.0, SVG Export Plug-In . SVG Version: 6.00 Build 0)  -->
<!DOCTYPE svg PUBLIC "-//W3C//DTD SVG 1.0//EN" "http://www.w3.org/TR/2001/REC-SVG-20010904/DTD/svg10.dtd">
<svg version="1.0" id="Capa_1" xmlns="http://www.w3.org/2000/svg" xmlns:xlink="http://www.w3.org/1999/xlink" x="0px" y="0px"
	 width="56.691px" height="56.689px" viewBox="0 0 56.691 56.689" enable-background="new 0 0 56.691 56.689" xml:space="preserve">
<g>
	<path d="M28.345,0C12.716,0,0,12.716,0,28.345c0,15.63,12.716,28.346,28.345,28.346c15.63,0,28.346-12.716,28.346-28.346
		C56.691,12.716,43.974,0,28.345,0z M28.345,51.831c-12.95,0-23.486-10.536-23.486-23.486S15.396,4.86,28.345,4.86
		c12.95,0,23.486,10.535,23.486,23.485S41.294,51.831,28.345,51.831z"/>
	<path d="M39.313,17.378c-0.948-0.948-2.487-0.948-3.435,0l-7.533,7.534l-7.532-7.534c-0.949-0.948-2.486-0.948-3.436,0
		c-0.949,0.949-0.949,2.487,0,3.436l7.533,7.533l-7.533,7.533c-0.949,0.949-0.949,2.486,0,3.436
		c0.474,0.475,1.096,0.712,1.718,0.712s1.244-0.237,1.718-0.712l7.532-7.533l7.533,7.533c0.474,0.475,1.096,0.712,1.717,0.712
		c0.622,0,1.244-0.237,1.719-0.712c0.949-0.949,0.949-2.486,0-3.436l-7.533-7.533l7.532-7.532
		C40.262,19.865,40.262,18.327,39.313,17.378z"/>
</g>
</svg>
