<?xml version="1.0" encoding="utf-8"?>
<!-- Generator: Adobe Illustrator 16.0.0, SVG Export Plug-In . SVG Version: 6.00 Build 0)  -->
<!DOCTYPE svg PUBLIC "-//W3C//DTD SVG 1.1//EN" "http://www.w3.org/Graphics/SVG/1.1/DTD/svg11.dtd">
<svg version="1.1" id="Layer_1" xmlns="http://www.w3.org/2000/svg" xmlns:xlink="http://www.w3.org/1999/xlink" x="0px" y="0px"
	 width="50px" height="50px" viewBox="0 0 50 50" enable-background="new 0 0 50 50" xml:space="preserve">
<g>
	<g>
		<path fill="#003C73" d="M25,0C11.193,0,0,11.193,0,25s11.193,25,25,25c13.806,0,25-11.193,25-25C50,11.193,38.806,0,25,0z
			 M22.219,25c0,0.522-0.095,1.018-0.262,1.483l6.978,3.357c0.803-0.879,1.955-1.432,3.239-1.432c2.425,0,4.392,1.965,4.392,4.391
			s-1.967,4.393-4.393,4.393s-4.393-1.967-4.393-4.393c0-0.232,0.023-0.459,0.059-0.682l-7.428-3.572
			c-0.726,0.531-1.619,0.848-2.587,0.848c-2.426,0-4.393-1.966-4.393-4.394c0-2.425,1.967-4.391,4.393-4.391
			c0.968,0,1.861,0.317,2.587,0.848l7.428-3.572c-0.034-0.223-0.059-0.449-0.059-0.682c0-2.426,1.968-4.393,4.394-4.393
			c2.425,0,4.393,1.967,4.393,4.393c0,2.426-1.968,4.393-4.393,4.393c-1.283,0-2.437-0.555-3.239-1.433l-6.978,3.355
			C22.124,23.981,22.219,24.479,22.219,25z"/>
	</g>
</g>
</svg>
